<svg width="84" height="42" viewBox="0 0 84 42" fill="none" xmlns="http://www.w3.org/2000/svg">
<path d="M9.608 38.18C9.024 38.18 8.492 38.084 8.012 37.892C7.532 37.7 7.12 37.42 6.776 37.052C6.432 36.684 6.164 36.232 5.972 35.696C5.788 35.152 5.696 34.532 5.696 33.836C5.696 33.14 5.8 32.524 6.008 31.988C6.224 31.444 6.512 30.988 6.872 30.62C7.232 30.252 7.652 29.972 8.132 29.78C8.612 29.588 9.124 29.492 9.668 29.492C10.012 29.492 10.32 29.516 10.592 29.564C10.872 29.612 11.112 29.668 11.312 29.732C11.52 29.796 11.688 29.86 11.816 29.924C11.944 29.988 12.032 30.036 12.08 30.068L11.744 31.028C11.672 30.98 11.568 30.928 11.432 30.872C11.296 30.816 11.14 30.76 10.964 30.704C10.796 30.648 10.608 30.604 10.4 30.572C10.2 30.532 9.996 30.512 9.788 30.512C9.348 30.512 8.952 30.588 8.6 30.74C8.248 30.892 7.948 31.112 7.7 31.4C7.452 31.688 7.26 32.04 7.124 32.456C6.996 32.864 6.932 33.324 6.932 33.836C6.932 34.332 6.988 34.784 7.1 35.192C7.22 35.6 7.396 35.952 7.628 36.248C7.86 36.536 8.148 36.76 8.492 36.92C8.844 37.08 9.252 37.16 9.716 37.16C10.252 37.16 10.696 37.104 11.048 36.992C11.4 36.88 11.664 36.78 11.84 36.692L12.14 37.652C12.084 37.692 11.984 37.744 11.84 37.808C11.696 37.864 11.516 37.92 11.3 37.976C11.084 38.032 10.832 38.08 10.544 38.12C10.256 38.16 9.944 38.18 9.608 38.18ZM26.643 33.836C26.643 33.124 26.747 32.496 26.955 31.952C27.171 31.408 27.459 30.956 27.819 30.596C28.187 30.228 28.611 29.952 29.091 29.768C29.579 29.584 30.095 29.492 30.639 29.492C31.175 29.492 31.679 29.584 32.151 29.768C32.631 29.952 33.051 30.228 33.411 30.596C33.771 30.956 34.055 31.408 34.263 31.952C34.479 32.496 34.587 33.124 34.587 33.836C34.587 34.548 34.479 35.176 34.263 35.72C34.055 36.264 33.771 36.72 33.411 37.088C33.051 37.448 32.631 37.72 32.151 37.904C31.679 38.088 31.175 38.18 30.639 38.18C30.095 38.18 29.579 38.088 29.091 37.904C28.611 37.72 28.187 37.448 27.819 37.088C27.459 36.72 27.171 36.264 26.955 35.72C26.747 35.176 26.643 34.548 26.643 33.836ZM27.867 33.836C27.867 34.34 27.931 34.8 28.059 35.216C28.187 35.624 28.367 35.972 28.599 36.26C28.839 36.548 29.127 36.772 29.463 36.932C29.807 37.084 30.191 37.16 30.615 37.16C31.039 37.16 31.419 37.084 31.755 36.932C32.091 36.772 32.375 36.548 32.607 36.26C32.847 35.972 33.031 35.624 33.159 35.216C33.287 34.8 33.351 34.34 33.351 33.836C33.351 33.332 33.287 32.876 33.159 32.468C33.031 32.052 32.847 31.7 32.607 31.412C32.375 31.124 32.091 30.904 31.755 30.752C31.419 30.592 31.039 30.512 30.615 30.512C30.191 30.512 29.807 30.592 29.463 30.752C29.127 30.904 28.839 31.124 28.599 31.412C28.367 31.7 28.187 32.052 28.059 32.468C27.931 32.876 27.867 33.332 27.867 33.836ZM56.8869 33.836C56.8869 34.556 56.7749 35.184 56.5509 35.72C56.3269 36.248 56.0109 36.688 55.6029 37.04C55.1949 37.384 54.7069 37.644 54.1389 37.82C53.5709 37.988 52.9469 38.072 52.2669 38.072C51.9309 38.072 51.5589 38.056 51.1509 38.024C50.7509 38 50.3869 37.948 50.0589 37.868V29.804C50.3869 29.724 50.7509 29.672 51.1509 29.648C51.5589 29.616 51.9309 29.6 52.2669 29.6C52.9469 29.6 53.5709 29.688 54.1389 29.864C54.7069 30.032 55.1949 30.292 55.6029 30.644C56.0109 30.988 56.3269 31.428 56.5509 31.964C56.7749 32.492 56.8869 33.116 56.8869 33.836ZM52.3629 37.052C53.4669 37.052 54.2909 36.772 54.8349 36.212C55.3789 35.644 55.6509 34.852 55.6509 33.836C55.6509 32.82 55.3789 32.032 54.8349 31.472C54.2909 30.904 53.4669 30.62 52.3629 30.62C52.0349 30.62 51.7789 30.624 51.5949 30.632C51.4189 30.64 51.2949 30.648 51.2229 30.656V37.016C51.2949 37.024 51.4189 37.032 51.5949 37.04C51.7789 37.048 52.0349 37.052 52.3629 37.052ZM72.3536 38V29.684H77.4296V30.68H73.5176V33.152H76.9976V34.124H73.5176V37.004H77.7296V38H72.3536Z" fill="white"/>
<path d="M10.86 18.32V21H1.6V7.14H4.72V18.32H10.86ZM22.7745 21C22.6279 20.52 22.4612 20.0267 22.2745 19.52C22.1012 19.0133 21.9279 18.5067 21.7545 18H16.3545C16.1812 18.5067 16.0012 19.0133 15.8145 19.52C15.6412 20.0267 15.4812 20.52 15.3345 21H12.0945C12.6145 19.5067 13.1079 18.1267 13.5745 16.86C14.0412 15.5933 14.4945 14.4 14.9345 13.28C15.3879 12.16 15.8279 11.1 16.2545 10.1C16.6945 9.08667 17.1479 8.1 17.6145 7.14H20.5945C21.0479 8.1 21.4945 9.08667 21.9345 10.1C22.3745 11.1 22.8145 12.16 23.2545 13.28C23.7079 14.4 24.1679 15.5933 24.6345 16.86C25.1012 18.1267 25.5945 19.5067 26.1145 21H22.7745ZM19.0345 10.28C18.9679 10.48 18.8679 10.7533 18.7345 11.1C18.6012 11.4467 18.4479 11.8467 18.2745 12.3C18.1012 12.7533 17.9079 13.2533 17.6945 13.8C17.4945 14.3467 17.2879 14.92 17.0745 15.52H21.0145C20.8012 14.92 20.5945 14.3467 20.3945 13.8C20.1945 13.2533 20.0012 12.7533 19.8145 12.3C19.6412 11.8467 19.4879 11.4467 19.3545 11.1C19.2212 10.7533 19.1145 10.48 19.0345 10.28ZM36.4078 8.62C36.5678 9.16667 36.7411 9.78667 36.9278 10.48C37.1278 11.16 37.3345 11.8667 37.5478 12.6C37.7745 13.3333 38.0011 14.0667 38.2278 14.8C38.4545 15.5333 38.6745 16.2133 38.8878 16.84C39.0611 16.16 39.2345 15.42 39.4078 14.62C39.5945 13.82 39.7678 12.9933 39.9278 12.14C40.0878 11.2867 40.2411 10.44 40.3878 9.6C40.5478 8.74667 40.6945 7.92667 40.8278 7.14H44.0678C43.6011 9.46 43.0611 11.8133 42.4478 14.2C41.8478 16.5867 41.1945 18.8533 40.4878 21H37.6278C37.1611 19.72 36.7078 18.38 36.2678 16.98C35.8278 15.5667 35.3945 14.1533 34.9678 12.74C34.5411 14.1533 34.1145 15.5667 33.6878 16.98C33.2611 18.38 32.8145 19.72 32.3478 21H29.4878C28.7811 18.8533 28.1211 16.5867 27.5078 14.2C26.9078 11.8133 26.3745 9.46 25.9078 7.14H29.2878C29.4211 7.92667 29.5678 8.74667 29.7278 9.6C29.8878 10.44 30.0545 11.2867 30.2278 12.14C30.4011 12.9933 30.5745 13.82 30.7478 14.62C30.9345 15.42 31.1211 16.16 31.3078 16.84C31.5478 16.1867 31.7811 15.4933 32.0078 14.76C32.2345 14.0267 32.4545 13.2933 32.6678 12.56C32.8811 11.8267 33.0745 11.12 33.2478 10.44C33.4345 9.76 33.6011 9.15333 33.7478 8.62H36.4078ZM51.8558 12.84C52.4158 11.8933 52.9491 10.9467 53.4558 10C53.9624 9.05333 54.4291 8.1 54.8558 7.14H58.2958C57.5358 8.63333 56.7491 10.08 55.9358 11.48C55.1224 12.88 54.2624 14.2867 53.3558 15.7V21H50.2358V15.74C49.3291 14.3267 48.4624 12.9133 47.6358 11.5C46.8224 10.0867 46.0358 8.63333 45.2758 7.14H48.8958C49.3224 8.1 49.7824 9.05333 50.2758 10C50.7691 10.9467 51.2958 11.8933 51.8558 12.84ZM59.9984 21V7.14H69.3584V9.76H63.1184V12.48H68.6584V15.04H63.1184V18.38H69.8184V21H59.9984ZM76.1873 6.98C78.2673 6.98 79.8607 7.35333 80.9673 8.1C82.074 8.83333 82.6273 9.98 82.6273 11.54C82.6273 12.5133 82.4007 13.3067 81.9473 13.92C81.5073 14.52 80.8673 14.9933 80.0273 15.34C80.3073 15.6867 80.6007 16.0867 80.9073 16.54C81.214 16.98 81.514 17.4467 81.8073 17.94C82.114 18.42 82.4073 18.9267 82.6873 19.46C82.9673 19.98 83.2273 20.4933 83.4673 21H79.9673C79.714 20.5467 79.454 20.0867 79.1873 19.62C78.934 19.1533 78.6673 18.7 78.3873 18.26C78.1207 17.82 77.854 17.4067 77.5873 17.02C77.3207 16.62 77.054 16.26 76.7873 15.94H75.2473V21H72.1273V7.34C72.8073 7.20667 73.5073 7.11333 74.2273 7.06C74.9607 7.00667 75.614 6.98 76.1873 6.98ZM76.3673 9.64C76.1407 9.64 75.934 9.64667 75.7473 9.66C75.574 9.67333 75.4073 9.68667 75.2473 9.7V13.46H76.1273C77.3007 13.46 78.1407 13.3133 78.6473 13.02C79.154 12.7267 79.4073 12.2267 79.4073 11.52C79.4073 10.84 79.1473 10.36 78.6273 10.08C78.1207 9.78667 77.3673 9.64 76.3673 9.64Z" fill="white"/>
</svg>
